<svg xmlns="http://www.w3.org/2000/svg" viewBox="0 0 64 64" role="img" aria-label="EO Reader">
  <defs>
    <linearGradient id="g" x1="0" y1="0" x2="1" y2="1">
      <stop offset="0" stop-color="#7c4ff0"/>
      <stop offset="1" stop-color="#5b34d6"/>
    </linearGradient>
  </defs>
  <rect width="64" height="64" rx="15" fill="url(#g)"/>
  <g fill="#fff" transform="translate(11.0,41.24) scale(0.03804,-0.03804)">
    <path d="M294 -11Q215 -11 153.5 21.5Q92 54 57.0 112.0Q22 170 22 243Q22 316 56.5 373.5Q91 431 150.0 464.0Q209 497 283 497Q355 497 410.0 466.0Q465 435 496.5 380.0Q528 325 528 254Q528 241 526.5 226.5Q525 212 521 193L102 192V297L456 298L390 254Q389 296 377.0 323.5Q365 351 341.5 365.5Q318 380 284 380Q248 380 221.5 363.5Q195 347 180.5 317.0Q166 287 166 244Q166 201 181.5 170.5Q197 140 225.5 123.5Q254 107 293 107Q329 107 358.0 119.5Q387 132 409 157L493 73Q457 31 406.0 10.0Q355 -11 294 -11Z"/>
    <path transform="translate(528,0)" d="M288 -11Q213 -11 152.5 22.5Q92 56 57.0 114.0Q22 172 22 244Q22 316 57.0 373.0Q92 430 152.0 463.5Q212 497 288 497Q364 497 424.0 464.0Q484 431 519.0 373.5Q554 316 554 244Q554 172 519.0 114.0Q484 56 424.0 22.5Q364 -11 288 -11ZM288 128Q321 128 346.0 142.5Q371 157 384.5 183.5Q398 210 398 244Q398 278 384.0 303.5Q370 329 345.5 343.5Q321 358 288 358Q256 358 231.0 343.5Q206 329 192.0 303.0Q178 277 178 243Q178 210 192.0 183.5Q206 157 231.0 142.5Q256 128 288 128Z"/>
  </g>
</svg>
